<svg width="16" height="20" viewBox="0 0 16 20" fill="none" xmlns="http://www.w3.org/2000/svg">
<path d="M14.741 13.036C14.7072 12.6351 14.5519 12.2539 14.2959 11.9435C14.0398 11.633 13.6953 11.408 13.3081 11.2983L9.10832 10.099V9.22812C9.70192 8.93362 10.2016 8.47938 10.5512 7.91648C10.9009 7.35358 11.0866 6.70431 11.0875 6.04167C11.4139 5.99181 11.7117 5.82665 11.9269 5.57613C12.1421 5.3256 12.2604 5.00629 12.2604 4.67604C12.2604 4.3458 12.1421 4.02648 11.9269 3.77595C11.7117 3.52543 11.4139 3.36027 11.0875 3.31042V1.29167H13.0667C13.1716 1.29167 13.2723 1.24996 13.3465 1.17573C13.4208 1.1015 13.4625 1.00081 13.4625 0.895833C13.4625 0.790852 13.4208 0.69017 13.3465 0.615937C13.2723 0.541704 13.1716 0.5 13.0667 0.5H1.98332C1.87834 0.5 1.77765 0.541704 1.70342 0.615937C1.62919 0.69017 1.58748 0.790852 1.58748 0.895833C1.58748 1.00081 1.62919 1.1015 1.70342 1.17573C1.77765 1.24996 1.87834 1.29167 1.98332 1.29167H2.37915V2.47917C2.37915 2.58415 2.42085 2.68483 2.49509 2.75906C2.56932 2.8333 2.67 2.875 2.77498 2.875C2.87997 2.875 2.98065 2.8333 3.05488 2.75906C3.12911 2.68483 3.17082 2.58415 3.17082 2.47917V1.29167H3.96248V3.29063C3.61973 3.32251 3.30122 3.48121 3.06936 3.73564C2.83749 3.99007 2.70897 4.32191 2.70897 4.66615C2.70897 5.01038 2.83749 5.34222 3.06936 5.59665C3.30122 5.85108 3.61973 6.00979 3.96248 6.04167C3.95969 6.70767 4.14366 7.36113 4.49349 7.92786C4.84333 8.4946 5.34503 8.95192 5.94165 9.24792V10.1187L1.7379 11.3062C1.35146 11.4166 1.00775 11.6419 0.7525 11.9523C0.497245 12.2627 0.342534 12.6435 0.308942 13.044C-0.0591827 17.4615 0.00415062 16.3333 0.00415062 17.9167C0.00415062 18.3366 0.170966 18.7393 0.467898 19.0363C0.764831 19.3332 1.16756 19.5 1.58748 19.5H13.4625C13.8824 19.5 14.2851 19.3332 14.5821 19.0363C14.879 18.7393 15.0458 18.3366 15.0458 17.9167C15.0458 16.3333 15.1131 17.5208 14.741 13.036ZM13.9494 13.0994L14.2185 16.3333H12.4729C12.7341 12.6679 13.225 13.1667 8.78373 13.1667C8.91832 12.3552 8.78373 12.8619 9.19936 12.7708C9.44082 12.7154 9.40915 12.6679 10.1573 11.231L13.0904 12.0702C13.3206 12.1353 13.5257 12.2684 13.679 12.452C13.8323 12.6356 13.9265 12.8613 13.9494 13.0994ZM3.19853 13.9583H11.8514L11.511 18.7083H3.53894L3.19853 13.9583ZM7.26373 11.9119C7.31694 11.9587 7.38174 11.9904 7.45137 12.0036C7.52099 12.0168 7.5929 12.0111 7.65957 11.9871C7.82978 11.9158 7.63978 11.8169 8.13061 12.1731L7.98019 13.1667H7.06978L6.90353 12.1731L7.26373 11.9119ZM9.38144 10.9975L8.98561 11.7892L8.36415 11.3419L8.84707 10.8431L9.38144 10.9975ZM11.0875 5.21438V4.09813C11.2021 4.13973 11.3011 4.21561 11.3711 4.31547C11.4411 4.41533 11.4787 4.53431 11.4787 4.65625C11.4787 4.77819 11.4411 4.89717 11.3711 4.99703C11.3011 5.09689 11.2021 5.17277 11.0875 5.21438ZM10.2958 1.29167V3.27083H4.75415V1.29167H10.2958ZM3.96248 4.09813V5.21438C3.84786 5.17277 3.74882 5.09689 3.67884 4.99703C3.60885 4.89717 3.57131 4.77819 3.57131 4.65625C3.57131 4.53431 3.60885 4.41533 3.67884 4.31547C3.74882 4.21561 3.84786 4.13973 3.96248 4.09813ZM4.75415 6.04167V4.0625H10.2958V6.04167C10.2958 6.77654 10.0039 7.48131 9.48426 8.00094C8.96463 8.52057 8.25985 8.8125 7.52498 8.8125C6.79011 8.8125 6.08534 8.52057 5.56571 8.00094C5.04608 7.48131 4.75415 6.77654 4.75415 6.04167ZM8.31665 9.51313V10.2335L7.52498 11.049L6.73332 10.2335V9.51313C7.25397 9.63581 7.796 9.63581 8.31665 9.51313ZM6.21873 10.8431L6.70165 11.3419L6.08019 11.7892L5.68436 10.9975L6.21873 10.8431ZM1.10061 13.0994C1.12118 12.8592 1.21438 12.6309 1.36781 12.445C1.52125 12.259 1.72764 12.1242 1.95957 12.0583L4.89269 11.2192C5.64478 12.66 5.61707 12.7035 5.85061 12.759C6.26623 12.8619 6.13165 12.3631 6.26623 13.1548C1.84873 13.1548 2.3079 12.6363 2.57707 16.3215H0.831442L1.10061 13.0994ZM0.795817 17.9167V17.125H2.63248L2.74728 18.7083H1.58748C1.37752 18.7083 1.17616 18.6249 1.02769 18.4765C0.879225 18.328 0.795817 18.1266 0.795817 17.9167ZM14.2542 17.9167C14.2542 18.1266 14.1707 18.328 14.0223 18.4765C13.8738 18.6249 13.6724 18.7083 13.4625 18.7083H12.3027L12.4175 17.125H14.2542V17.9167Z" fill="white"/>
</svg>
