<svg width="21" height="23" viewBox="0 0 21 23" fill="none" xmlns="http://www.w3.org/2000/svg">
<path d="M16.9046 7.78811C16.9046 6.03687 16.2525 4.35736 15.0915 3.11905C13.9306 1.88073 12.3561 1.18506 10.7143 1.18506C9.07248 1.18506 7.49793 1.88073 6.33701 3.11905C5.17609 4.35736 4.5239 6.03687 4.5239 7.78811C4.5239 15.4917 1.42871 17.6927 1.42871 17.6927H19.9998C19.9998 17.6927 16.9046 15.4917 16.9046 7.78811Z" stroke="#2F88FF" stroke-width="2" stroke-linecap="round" stroke-linejoin="round"/>
<path d="M12.5029 20.7866C12.3215 21.0993 12.0612 21.3589 11.7479 21.5393C11.4346 21.7197 11.0795 21.8147 10.718 21.8147C10.3565 21.8147 10.0014 21.7197 9.68812 21.5393C9.37489 21.3589 9.11448 21.0993 8.93311 20.7866" stroke="#2F88FF" stroke-width="2" stroke-linecap="round" stroke-linejoin="round"/>
</svg>
