<svg width="19" height="20" viewBox="0 0 19 20" fill="none" xmlns="http://www.w3.org/2000/svg">
<path d="M7.90198 15.5318C7.71734 15.5322 7.5384 15.4679 7.39623 15.3501C7.31621 15.2837 7.25007 15.2022 7.20158 15.1103C7.1531 15.0184 7.12323 14.9177 7.11369 14.8142C7.10415 14.7107 7.11512 14.6064 7.14597 14.5071C7.17683 14.4079 7.22696 14.3157 7.2935 14.2358L10.8338 10.0001L7.41994 5.75651C7.35429 5.67568 7.30527 5.58267 7.27569 5.48283C7.24611 5.38299 7.23656 5.27829 7.24757 5.17475C7.25859 5.07121 7.28996 4.97086 7.33988 4.87948C7.3898 4.7881 7.45729 4.70748 7.53847 4.64227C7.62024 4.57033 7.71599 4.51607 7.81972 4.48288C7.92344 4.4497 8.03291 4.43832 8.14125 4.44945C8.24959 4.46058 8.35445 4.49398 8.44927 4.54756C8.54408 4.60114 8.6268 4.67374 8.69223 4.76081L12.5091 9.50226C12.6253 9.64366 12.6889 9.82102 12.6889 10.0041C12.6889 10.1871 12.6253 10.3645 12.5091 10.5059L8.55789 15.2473C8.47861 15.343 8.37791 15.4185 8.26395 15.468C8.14999 15.5174 8.02598 15.5393 7.90198 15.5318Z" fill="#2B2E34"/>
</svg>
