<svg width="26" height="20" viewBox="0 0 26 20" fill="none" xmlns="http://www.w3.org/2000/svg">
<path d="M6.60556 9.14912C7.28778 9.14829 7.9418 8.87686 8.42413 8.39438C8.90645 7.91191 9.17768 7.2578 9.17831 6.57559C9.17768 5.89323 8.9065 5.23896 8.42422 4.75624C7.94194 4.27352 7.28792 4.00174 6.60556 4.00049C5.923 4.00153 5.2687 4.27319 4.78612 4.75591C4.30355 5.23864 4.03208 5.89302 4.03125 6.57559C4.03208 7.25801 4.3036 7.91224 4.78622 8.39471C5.26884 8.87718 5.92314 9.1485 6.60556 9.14912ZM6.60556 4.78654C7.07066 4.80033 7.51209 4.99478 7.8362 5.32864C8.1603 5.6625 8.34159 6.1095 8.34159 6.5748C8.34159 7.04011 8.1603 7.48711 7.8362 7.82096C7.51209 8.15482 7.07066 8.34928 6.60556 8.36307C6.13155 8.36265 5.67706 8.17422 5.34181 7.83912C5.00656 7.50401 4.81792 7.0496 4.8173 6.57559C4.81772 6.10137 5.00623 5.64668 5.34148 5.31128C5.67673 4.97588 6.13134 4.78716 6.60556 4.78654ZM16.8384 7.28068H20.0038C20.108 7.28068 20.208 7.23927 20.2817 7.16556C20.3554 7.09186 20.3968 6.99189 20.3968 6.88765C20.3968 6.78342 20.3554 6.68345 20.2817 6.60974C20.208 6.53603 20.108 6.49463 20.0038 6.49463H16.8384C16.7341 6.49463 16.6342 6.53603 16.5605 6.60974C16.4868 6.68345 16.4453 6.78342 16.4453 6.88765C16.4453 6.99189 16.4868 7.09186 16.5605 7.16556C16.6342 7.23927 16.7341 7.28068 16.8384 7.28068Z" fill="white"/>
<path d="M24.8015 16.6641H24.3023V1.20797C24.3023 1.10373 24.2609 1.00376 24.1872 0.930056C24.1135 0.856349 24.0135 0.814941 23.9093 0.814941H1.28755C1.18331 0.814941 1.08335 0.856349 1.00964 0.930056C0.935933 1.00376 0.894525 1.10373 0.894525 1.20797V16.6641H0.393025C0.288788 16.6641 0.188821 16.7055 0.115114 16.7792C0.0414079 16.8529 0 16.9529 0 17.0571V18.7919C0 18.8962 0.0414079 18.9961 0.115114 19.0698C0.188821 19.1435 0.288788 19.1849 0.393025 19.1849H24.8022C24.9065 19.1849 25.0064 19.1435 25.0802 19.0698C25.1539 18.9961 25.1953 18.8962 25.1953 18.7919V17.0571C25.1953 17.0054 25.1851 16.9543 25.1653 16.9065C25.1455 16.8588 25.1165 16.8154 25.0799 16.7789C25.0433 16.7424 24.9999 16.7135 24.9521 16.6938C24.9043 16.6741 24.8531 16.664 24.8015 16.6641ZM1.68058 1.60099H23.5163V16.6641H9.95611V13.185L12.2427 13.9546C12.3086 13.9768 12.3791 13.9811 12.4472 13.9672C12.5153 13.9532 12.5784 13.9215 12.6303 13.8752L15.4286 11.37L16.3113 11.2144C16.408 11.1976 16.4948 11.1452 16.5546 11.0675C16.6145 10.9897 16.6429 10.8924 16.6344 10.7946L16.4591 8.72261C16.4508 8.62447 16.406 8.53301 16.3335 8.46634C16.261 8.39967 16.1661 8.36264 16.0677 8.3626H15.8468L16.1785 6.97915C16.2028 6.87773 16.1858 6.77081 16.1312 6.68192C16.0767 6.59303 15.9891 6.52945 15.8876 6.50516C15.7862 6.48087 15.6793 6.49787 15.5904 6.55241C15.5015 6.60696 15.4379 6.69458 15.4137 6.796L15.0977 8.11185L15.0033 8.04739C14.9506 8.01218 14.8902 7.99009 14.8271 7.98298C14.7641 7.97587 14.7003 7.98394 14.641 8.00652C14.5818 8.02962 14.5291 8.0666 14.4872 8.11435C14.4454 8.16209 14.4156 8.21919 14.4004 8.28085L14.1599 9.27992L11.9818 11.036L9.57488 9.3373C9.50871 9.29045 9.42957 9.26545 9.3485 9.26577H4.39559C3.98213 9.26577 3.73138 9.44656 3.59382 9.59827C3.23381 9.9968 3.28255 10.5871 3.28648 10.6138V16.6657H1.68058V1.60099ZM0.78605 17.4501H3.28883V18.3989H0.78605V17.4501ZM4.0741 18.3989V17.0555L4.07174 10.573C4.06388 10.4936 4.0741 10.2397 4.17864 10.1249C4.19672 10.1053 4.24467 10.0518 4.41996 10.0518H9.2243L11.7711 11.8495C11.841 11.8987 11.925 11.9237 12.0103 11.9209C12.0957 11.9181 12.1779 11.8875 12.2443 11.8338L14.7573 9.80815C14.8247 9.75357 14.8724 9.6785 14.8933 9.59434L15.0324 9.01659L15.1275 9.08105C15.1338 9.08498 15.1417 9.08341 15.1464 9.08734C15.181 9.10777 15.2156 9.12821 15.2564 9.13764C15.2863 9.14474 15.3169 9.14843 15.3476 9.14865H15.7061L15.8208 10.503L15.1818 10.6162C15.1096 10.629 15.0423 10.6617 14.9876 10.7105L12.2773 13.1379L9.68886 12.2669C9.62982 12.2469 9.56687 12.2413 9.50522 12.2505C9.44357 12.2597 9.38501 12.2834 9.33437 12.3198C9.28374 12.3561 9.24249 12.404 9.21405 12.4595C9.18562 12.5149 9.1708 12.5764 9.17085 12.6387V18.3997H4.0741V18.3989ZM24.4084 18.3989H9.95611V17.4501H24.4092L24.4084 18.3989Z" fill="white"/>
</svg>
