<svg width="16" height="18" viewBox="0 0 16 18" fill="none" xmlns="http://www.w3.org/2000/svg">
<path d="M13.3503 15.9974C13.3503 16.1744 13.28 16.3442 13.1548 16.4694C13.0296 16.5946 12.8598 16.6649 12.6828 16.6649H2.00254C1.82551 16.6649 1.65572 16.5946 1.53054 16.4694C1.40536 16.3442 1.33503 16.1744 1.33503 15.9974V1.97956H8.01017V0.644531H0V15.9974C0 16.5285 0.210982 17.0378 0.586532 17.4134C0.962081 17.7889 1.47144 17.9999 2.00254 17.9999H12.6828C13.2139 17.9999 13.7232 17.7889 14.0988 17.4134C14.4743 17.0378 14.6853 16.5285 14.6853 15.9974V7.31968H13.3503V15.9974Z" fill="#2392EC"/>
<path d="M14.7665 0.564532C14.3845 0.202066 13.878 0 13.3514 0C12.8248 0 12.3183 0.202066 11.9363 0.564532L8.01126 4.48284L7.34375 8.02067L10.8482 7.31978L14.7665 3.40147C14.9532 3.21543 15.1013 2.99436 15.2024 2.75095C15.3035 2.50753 15.3555 2.24656 15.3555 1.983C15.3555 1.71944 15.3035 1.45847 15.2024 1.21505C15.1013 0.971641 14.9532 0.750575 14.7665 0.564532ZM10.1874 6.08488L9.01254 6.31851L9.24617 5.14368L11.4623 2.92086L12.4102 3.86873L10.1874 6.08488ZM13.8253 2.4536L13.3514 2.92086L12.4102 1.97966L12.8774 1.50573C12.9395 1.44316 13.0133 1.3935 13.0947 1.35961C13.176 1.32573 13.2633 1.30828 13.3514 1.30828C13.4395 1.30828 13.5267 1.32573 13.6081 1.35961C13.6894 1.3935 13.7633 1.44316 13.8253 1.50573C13.8879 1.56778 13.9375 1.64161 13.9714 1.72295C14.0053 1.80429 14.0228 1.89154 14.0228 1.97966C14.0228 2.06778 14.0053 2.15503 13.9714 2.23637C13.9375 2.31772 13.8879 2.39154 13.8253 2.4536Z" fill="#2392EC"/>
</svg>
