<svg width="15" height="18" viewBox="0 0 15 18" fill="none" xmlns="http://www.w3.org/2000/svg">
<path d="M12.2143 1.28571H10.17C10.0374 0.910575 9.79195 0.585642 9.4674 0.35546C9.14284 0.125279 8.75503 0.00111826 8.35714 0H5.78571C5.38782 0.00111826 5.00001 0.125279 4.67546 0.35546C4.3509 0.585642 4.10549 0.910575 3.97286 1.28571H1.92857C1.41708 1.28571 0.926543 1.4889 0.564865 1.85058C0.203188 2.21226 0 2.7028 0 3.21429V16.0714C0 16.5829 0.203188 17.0735 0.564865 17.4351C0.926543 17.7968 1.41708 18 1.92857 18H12.2143C12.7258 18 13.2163 17.7968 13.578 17.4351C13.9397 17.0735 14.1429 16.5829 14.1429 16.0714V3.21429C14.1429 2.7028 13.9397 2.21226 13.578 1.85058C13.2163 1.4889 12.7258 1.28571 12.2143 1.28571ZM5.14286 1.92857C5.14286 1.75808 5.21059 1.59456 5.33115 1.474C5.4517 1.35344 5.61522 1.28571 5.78571 1.28571H8.35714C8.52764 1.28571 8.69115 1.35344 8.81171 1.474C8.93227 1.59456 9 1.75808 9 1.92857V2.57143H5.14286V1.92857ZM12.8571 16.0714C12.8571 16.2419 12.7894 16.4054 12.6689 16.526C12.5483 16.6466 12.3848 16.7143 12.2143 16.7143H1.92857C1.75807 16.7143 1.59456 16.6466 1.474 16.526C1.35344 16.4054 1.28571 16.2419 1.28571 16.0714V3.21429C1.28571 3.04379 1.35344 2.88028 1.474 2.75972C1.59456 2.63916 1.75807 2.57143 1.92857 2.57143H3.85714V3.85714H10.2857V2.57143H12.2143C12.3848 2.57143 12.5483 2.63916 12.6689 2.75972C12.7894 2.88028 12.8571 3.04379 12.8571 3.21429V16.0714Z" fill="white"/>
<path d="M10.286 9H3.85742V10.2857H10.286V9Z" fill="white"/>
<path d="M7.07171 11.5713H3.85742V12.857H7.07171V11.5713Z" fill="white"/>
</svg>
